first trial
nRows=26
nColumns=38

# SIMM Motion File Header:
name Sujet_04_velo_100.mvnx
datacolumns 38
datarows 26
otherdata 1
range 0.0000 0.4170
endheader
time pelvis_tilt  pelvis_list  pelvis_rotation  pelvis_tx  pelvis_ty  pelvis_tz  hip_flexion_r  hip_adduction_r  hip_rotation_r  knee_angle_r  ankle_angle_r  subtalar_angle_r  mtp_angle_r  hip_flexion_l  hip_adduction_l  hip_rotation_l  knee_angle_l  ankle_angle_l  subtalar_angle_l  mtp_angle_l  lumbar_extension  lumbar_bending  lumbar_rotation  arm_flex_r  arm_add_r  arm_rot_r  elbow_flex_r  pro_sup_r  wrist_flex_r  wrist_dev_r  arm_flex_l  arm_add_l  arm_rot_l  elbow_flex_l  pro_sup_l  wrist_flex_l  wrist_dev_l
0.0000	-18.7413	5.1239	-38.9738	0.0000	1.2500	-0.0000	67.4907	-9.4954	3.1982	60.6185	10.3024	0.8882	0.0000	65.1004	-5.7870	-11.1288	90.9157	2.4526	10.5038	-0.0000	-15.0855	1.8692	-1.4703	74.7225	-5.1234	21.1449	21.2210	66.3442	-25.9518	-11.4392	73.2481	10.1618	21.0148	11.8964	68.0878	-31.6714	-20.9075	
0.0170	-18.2871	5.5092	-38.7365	0.0000	1.2500	-0.0000	63.1879	-9.8192	2.6945	55.5937	7.7606	1.5901	0.0000	67.6890	-5.6470	-10.9785	95.4740	4.0026	11.2432	-0.0000	-15.1627	1.6227	-1.5005	74.0755	-5.3601	20.9321	21.5329	65.9286	-25.8361	-11.3244	73.0196	10.3794	20.5451	11.5383	69.0547	-31.7077	-20.7776	
0.0330	-17.8314	5.8915	-38.5031	0.0000	1.2500	-0.0000	58.8780	-10.1191	2.1406	50.5560	5.1874	2.2944	-0.0000	70.2761	-5.5081	-10.8520	100.0395	5.5476	11.9724	-0.0000	-15.2413	1.3764	-1.5295	73.4259	-5.5917	20.7189	21.8440	65.5124	-25.7197	-11.2092	72.7903	10.5916	20.0744	11.1676	70.0231	-31.7441	-20.6478	
0.0500	-17.5135	6.3070	-38.2104	0.0000	1.2500	-0.0000	55.0764	-10.4289	1.6695	46.4772	2.7820	2.7437	0.0000	72.9103	-5.3743	-10.6594	103.6436	7.2487	12.2355	-0.0000	-15.3193	1.1623	-1.6333	73.0422	-5.7131	20.5177	22.0267	65.1738	-25.6138	-11.1230	72.7604	10.6892	19.6775	10.9033	70.8413	-31.7727	-20.5524	
0.0670	-17.4221	6.8096	-37.7150	0.0000	1.2500	-0.0000	51.8838	-10.8246	1.2860	43.5696	0.5054	2.8266	-0.0000	75.7909	-5.2433	-10.3329	105.9906	9.3172	11.7716	-0.0000	-15.3877	1.0101	-1.8933	73.0933	-5.6255	20.3344	21.9700	64.9555	-25.5280	-11.0879	73.0779	10.5992	19.3704	10.8182	71.4552	-31.7954	-20.5148	
0.0830	-17.4649	7.3489	-37.1558	0.0000	1.2500	-0.0000	49.1976	-11.2446	0.9829	41.6244	-1.5822	2.7096	0.0000	78.7201	-5.1066	-9.9539	107.3816	11.5357	10.9103	0.0000	-15.4545	0.8914	-2.2298	73.4142	-5.4334	20.1638	21.7848	64.8127	-25.4538	-11.0824	73.5956	10.4012	19.1389	10.8477	71.9181	-31.8102	-20.5122	
0.1000	-17.5149	7.8031	-36.8937	0.0000	1.2500	-0.0000	47.2354	-11.5549	0.9132	40.9809	-3.1174	2.5035	0.0000	81.1505	-4.9668	-9.6280	107.7199	13.4375	10.0345	0.0000	-15.5428	0.7492	-2.4781	73.7717	-5.3372	20.0027	21.6765	64.6954	-25.3740	-11.0695	74.0731	10.2176	19.0122	10.9089	72.2380	-31.8034	-20.5101	
0.1170	-17.5495	8.1527	-37.1965	0.0000	1.2500	-0.0000	46.1063	-11.6952	1.2161	41.8533	-3.9164	2.0222	0.0000	82.9920	-4.8594	-9.2739	106.9135	14.9731	9.0726	0.0000	-15.6733	0.5145	-2.5571	74.1287	-5.4365	19.8398	21.7360	64.5772	-25.2776	-11.0340	74.4523	10.0687	19.0690	11.0059	72.3636	-31.7359	-20.4879	
0.1330	-17.5988	8.4163	-37.7967	0.0000	1.2500	-0.0000	45.7126	-11.7545	1.8039	44.0609	-4.1538	1.3581	0.0000	84.3324	-4.7568	-8.9268	105.0346	16.1945	8.0596	-0.0000	-15.8227	0.2533	-2.5492	74.5205	-5.6311	19.6863	21.8729	64.4870	-25.1755	-10.9908	74.7912	9.9324	19.2302	11.1391	72.3456	-31.6467	-20.4658	
0.1500	-17.6156	8.5267	-38.2533	0.0000	1.2500	-0.0000	45.9659	-11.8202	2.5045	47.3280	-3.9966	1.0129	0.0000	84.8945	-4.5749	-8.8642	102.2224	16.8213	7.4395	-0.0000	-15.9510	0.1111	-2.5329	74.8221	-5.8190	19.5724	22.0206	64.4600	-25.0832	-10.9481	75.0238	9.8694	19.2880	11.2191	72.3448	-31.6397	-20.4700	
0.1670	-17.5660	8.4419	-38.2999	0.0000	1.2500	-0.0000	46.9113	-11.9274	3.3107	51.7977	-3.3586	1.2812	0.0000	84.5624	-4.1809	-9.2805	98.3644	16.7599	7.4220	0.0000	-16.0489	0.1754	-2.5564	74.9975	-5.9894	19.5214	22.1776	64.4838	-25.0042	-10.9053	75.1412	9.9341	19.1174	11.1743	72.4702	-31.7762	-20.5061	
0.1830	-17.4814	8.2044	-38.2028	0.0000	1.2500	-0.0000	48.5040	-12.0115	4.2294	57.3195	-2.3141	1.8850	-0.0000	83.4575	-3.6969	-9.9803	93.5869	16.1191	7.7343	0.0000	-16.1275	0.3598	-2.5690	75.0834	-6.1525	19.5098	22.3454	64.5706	-24.9355	-10.8638	75.1532	10.0728	18.8427	11.0770	72.6123	-31.9955	-20.5690	
0.2000	-17.4087	7.8759	-38.3200	0.0000	1.2500	-0.0000	50.5190	-12.0082	5.0971	63.1716	-1.2702	2.5074	0.0000	81.6628	-3.4202	-10.6807	88.3911	14.9330	8.1052	0.0000	-16.1812	0.5505	-2.5005	75.0634	-6.2375	19.4959	22.4615	64.7927	-24.8839	-10.8355	75.0213	10.1865	18.6298	11.0521	72.6036	-32.2176	-20.6682	
0.2170	-17.3449	7.4327	-38.8620	0.0000	1.2500	-0.0000	52.9366	-11.8282	5.8617	69.3311	-0.4407	3.1342	-0.0000	79.0637	-3.5200	-11.3555	82.7794	13.0992	8.4588	-0.0000	-16.2067	0.7145	-2.2989	74.8832	-6.1951	19.4315	22.4675	65.2221	-24.8418	-10.8214	74.7078	10.2524	18.5335	11.1436	72.3596	-32.4365	-20.8225	
0.2330	-17.2856	6.8996	-39.6179	0.0000	1.2500	-0.0000	55.7685	-11.5367	6.5240	75.8196	0.3758	3.8015	-0.0000	75.7744	-3.8048	-12.1010	76.7394	10.7151	8.8951	0.0000	-16.2099	0.8854	-2.0170	74.5964	-6.0768	19.3641	22.4173	65.7851	-24.8171	-10.8212	74.2500	10.2968	18.5006	11.3028	71.9653	-32.6593	-21.0142	
0.2500	-17.2770	6.4100	-40.3166	0.0000	1.2500	-0.0000	58.8419	-11.3170	7.0197	81.9842	1.3862	4.2576	-0.0000	72.2204	-4.0423	-12.8090	70.7543	8.1203	9.4263	0.0000	-16.1978	1.0484	-1.7418	74.3492	-5.9618	19.3962	22.4191	66.3362	-24.8389	-10.8439	73.7209	10.2946	18.5345	11.5167	71.5075	-32.8249	-21.1964	
0.2670	-17.3418	6.0090	-40.8301	0.0000	1.2500	-0.0000	62.1993	-11.2878	7.2981	87.7945	2.6409	4.4200	0.0000	68.3574	-4.1484	-13.5470	64.7296	5.2809	10.1647	-0.0000	-16.1611	1.2035	-1.5091	74.1606	-5.8727	19.6028	22.5387	66.8203	-24.9199	-10.8938	73.0497	10.2134	18.7096	11.8264	70.9605	-32.8876	-21.3444	
0.2840	-17.4613	5.6494	-41.2881	0.0000	1.2500	-0.0000	65.8011	-11.3595	7.4366	93.2483	4.0886	4.3803	0.0000	64.2282	-4.1968	-14.2302	58.7725	2.2366	10.9876	-0.0000	-16.1079	1.3503	-1.2828	74.0108	-5.7851	19.9090	22.7116	67.2923	-25.0467	-10.9658	72.3075	10.0852	18.9523	12.1907	70.3491	-32.8923	-21.4819	
0.3000	-17.6241	5.3249	-41.8076	0.0000	1.2500	-0.0000	69.3576	-11.4006	7.5871	97.7631	5.7830	4.1508	0.0000	60.3863	-4.2516	-14.4773	53.6770	-0.5665	11.5670	0.0000	-16.0694	1.4717	-1.0412	73.9888	-5.7036	20.1937	22.8539	67.7721	-25.2079	-11.0545	71.7784	9.9803	19.0428	12.4779	69.8354	-32.9130	-21.6339	
0.3170	-17.8512	5.0440	-42.4777	0.0000	1.2500	-0.0000	72.9045	-11.3810	7.7423	101.2427	7.9404	3.7416	-0.0000	56.8921	-4.3879	-14.1142	49.5309	-3.1697	11.7542	-0.0000	-16.0513	1.5489	-0.7637	74.1428	-5.6041	20.4174	22.9374	68.2960	-25.4180	-11.1744	71.6075	9.9429	18.8006	12.5912	69.5372	-32.9965	-21.8243	
0.3340	-18.1215	4.7954	-43.2103	0.0000	1.2500	-0.0000	76.4029	-11.3158	7.8910	103.7917	10.3363	3.2069	0.0000	53.6713	-4.6086	-13.3250	46.2356	-5.5363	11.7373	0.0000	-16.0482	1.5993	-0.4707	74.4246	-5.5080	20.6204	22.9906	68.8291	-25.6615	-11.3098	71.6471	9.9269	18.4042	12.6308	69.3371	-33.0961	-22.0293	
0.3500	-18.3615	4.5456	-43.8531	0.0000	1.2500	-0.0000	79.4531	-11.1249	8.1741	105.1420	12.3583	2.5726	-0.0000	51.0752	-4.8990	-12.2598	44.3010	-7.1104	11.6871	-0.0000	-16.0750	1.6605	-0.2024	74.7811	-5.4884	20.8019	23.0159	69.2848	-25.8830	-11.4104	71.7415	9.8666	18.1716	12.7602	69.0446	-33.1446	-22.2001	
0.3670	-18.5528	4.2808	-44.3790	0.0000	1.2500	-0.0000	82.0656	-10.7416	8.7429	105.1609	13.7920	1.6269	0.0000	49.2063	-5.2940	-10.6589	43.9530	-7.5804	11.5928	0.0000	-16.1483	1.7560	0.0339	75.2673	-5.6315	20.9932	23.0358	69.6256	-26.0653	-11.4428	71.8508	9.7141	18.2707	13.0892	68.5250	-33.0949	-22.3358	
0.3840	-18.7150	4.0174	-44.8137	0.0000	1.2500	-0.0000	84.2311	-10.2252	9.4586	103.9781	14.8294	0.5239	-0.0000	47.9712	-5.7775	-8.7540	44.9300	-7.2513	11.4308	0.0000	-16.2509	1.8615	0.2457	75.8312	-5.8492	21.1661	23.0301	69.8894	-26.2262	-11.4407	72.0165	9.5133	18.5322	13.5092	67.9133	-32.9927	-22.4365	
0.4000	-18.8320	3.7694	-45.0836	0.0000	1.2500	-0.0000	85.5284	-9.7094	10.0611	101.7224	15.4913	-0.2320	-0.0000	47.4303	-6.2042	-7.4110	47.0812	-6.4971	11.3317	0.0000	-16.3459	1.9437	0.4154	76.2569	-5.9587	21.2259	22.9380	70.1024	-26.3639	-11.4554	72.2056	9.3411	18.7698	13.8530	67.4230	-32.9092	-22.4544	
0.4170	-18.9086	3.4615	-45.2055	0.0000	1.2500	-0.0000	85.8128	-9.1655	10.6494	98.3029	15.8277	-0.4330	-0.0000	47.6526	-6.5434	-6.9965	50.5928	-5.2065	11.3263	-0.0000	-16.4208	2.0003	0.5525	76.4472	-5.8534	21.0532	22.6810	70.3410	-26.4778	-11.5112	72.4128	9.2134	18.9353	14.0837	67.1022	-32.8920	-22.3429	
